- 
http://www.Speed.Cd 
       
http://www.Speed.Cd      fast  and The Hottest Private Tracker on the net

(((--Submit for invite!!--)))

Please Seed back to make the speed Faster!!!

------------------nfo--------------------------
-








































          
          
              
              
                    
                    
                    
                    

Undocumented.2010.VODRiP.XviD-SiC

Poster:
[img]http://img571.imageshack.us/img571/4697/undoentedk.jpg[/img]

IMDB Link: 
http://www.imdb.com/title/tt1468381/

Description:
A documentary crew accompany a group of illegal immigrants crossing the Border, but their plans run afoul when they are captured by a gang of sadistic radicals in New Mexico.  

MediaInfo:
General
Complete name                    : E:\Undocumented.2010.VODRiP.XviD-SiC.avi
Format                           : AVI
Format/Info                      : Audio Video Interleave
File size                        : 1.37 GiB
Duration                         : 1h 36mn
Overall bit rate                 : 2 041 Kbps

Video
ID                               : 0
Format                           : MPEG-4 Visual
Format profile                   : Advanced Simple@L5
Format settings, BVOP            : 1
Format settings, QPel            : No
Format settings, GMC             : No warppoints
Format settings, Matrix          : Default (H.263)
Codec ID                         : XVID
Codec ID/Hint                    : XviD
Duration                         : 1h 36mn
Bit rate                         : 1 778 Kbps
Width                            : 720 pixels
Height                           : 400 pixels
Display aspect ratio             : 16:9
Frame rate                       : 25.000 fps
Color space                      : YUV
Chroma subsampling               : 4:2:0
Bit depth                        : 8 bits
Scan type                        : Progressive
Compression mode                 : Lossy
Bits/(Pixel*Frame)               : 0.247
Stream size                      : 1.19 GiB (87%)
Writing library                  : XviD 1.2.1 (UTC 2008-12-04)

Audio
ID                               : 1
Format                           : AC-3
Format/Info                      : Audio Coding 3
Codec ID                         : 2000
Duration                         : 1h 36mn
Bit rate mode                    : Constant
Bit rate                         : 256 Kbps
Channel(s)                       : 2 channels
Sampling rate                    : 44.1 KHz
Compression mode                 : Lossy
Stream size                      : 176 MiB (13%)
Alignment                        : Split accross interleaves
Interleave, duration             : 70 ms (1.74 video frames)
Interleave, preload duration     : 209 ms
Title                            : Undocumentedtrack_1_

Screenshots:
[img]http://img269.imageshack.us/img269/8711/vlcsnap2011092912h55m47.png[/img]
[img]http://img28.imageshack.us/img28/7555/vlcsnap2011092912h55m30.png[/img]
[img]http://img51.imageshack.us/img51/9867/vlcsnap2011092912h55m20.png[/img]
[img]http://img823.imageshack.us/img823/912/vlcsnap2011092912h55m15.png[/img]
[img]http://img809.imageshack.us/img809/1848/vlcsnap2011092913h00m47.png[/img]


Note : Like the "SAINT" VODRiP we did -- this was taken from a standard definition VOD stream. The video quality on the stream was not the greatest. Most of the video noise was present in said stream. I did my best to clean it up. It looks decent for what it is. From what I'm told, this is a fairly disturbing politically charged horror movie, so.. enjoy at your own risk.   

Source: Our own

Enjoy!

Respects to CaptainHomey, Cyanide, CM8, Rx, THC, ELEKTRI4KA, 
Killerhz, PA, YeFsTe, BoxSlots, MrRep and everyone in the struggle...